<svg id="Ujjivan-Logo" xmlns="http://www.w3.org/2000/svg" width="347" height="43.725" viewBox="0 0 347 43.725">
  <g id="Group_5252" data-name="Group 5252">
    <path id="Path_626" data-name="Path 626" d="M36.635,7.219c.137-6,2.511-7.164,2.511-7.164s-5.151-.173-6.284.361C27.61,2.335,26.78,8.237,26.773,12.039v0C26.78,11.476,26.73.834,15.28.091,14.934.07,0,.055,0,.055S2.4,1.224,2.518,7.219v18.1c.375-4.04,2.186-8.845,6.551-14.364,3.73,4.718,5.6,8.917,6.291,12.561a26.233,26.233,0,0,1,11.377-5.194A30.349,30.349,0,0,1,24.465,31.6a24.691,24.691,0,0,1,11.543-.007,17.282,17.282,0,0,0,.635-3.752Z" transform="translate(0 -0.028)" fill="#229e82"/>
    <path id="Path_627" data-name="Path 627" d="M40.209,180.43c-.144-3.629.339-11.009,6.76-16.37-.7-3.643-2.561-7.842-6.291-12.561-4.365,5.519-6.176,10.324-6.551,14.364a17.283,17.283,0,0,0,6.082,14.566" transform="translate(-31.61 -140.572)" fill="#f78f35"/>
    <path id="Path_628" data-name="Path 628" d="M137.059,253.6a26.316,26.316,0,0,0-11.377,5.194c-6.428,5.36-6.912,12.741-6.76,16.37.18.18,2.691,1.818,2.691,1.818a22.248,22.248,0,0,1,13.174-10.108,30.227,30.227,0,0,0,2.273-13.275" transform="translate(-110.322 -235.306)" fill="#fcb53e"/>
    <path id="Path_629" data-name="Path 629" d="M169.674,428.766A22.225,22.225,0,0,0,156.5,438.873a.055.055,0,0,1,.029.014,17.064,17.064,0,0,0,8.549,2.02,16.815,16.815,0,0,0,16.139-12.149,24.6,24.6,0,0,0-11.543.007" transform="translate(-145.209 -397.197)" fill="#ffca43"/>
  </g>
  <g id="Group_5253" data-name="Group 5253" transform="translate(47.76 13.136)">
    <path id="Path_630" data-name="Path 630" d="M1342.576,182.547V182.1h-3.838v.447c.721.195.952.6.952,1.068a5.881,5.881,0,0,1-.534,1.984l-2.294,6.031-3.615-8.657a1.513,1.513,0,0,0-1.385-.873H1328.5v.44c1.075.123,1.58.859,2.186,2.345l4.855,11.688h.534l4.668-11.688C1341.263,183.579,1341.732,182.778,1342.576,182.547Z" transform="translate(-1280.415 -182.1)" fill="#f78f35"/>
    <path id="Path_631" data-name="Path 631" d="M1523.894,195.209a16.864,16.864,0,0,1-.772-1.587l-4.711-11.522h-1.977l-4.589,11.709c-.5,1.27-.96,2.071-1.746,2.323v.44h3.326v-.44c-.656-.144-.8-.411-.8-.815a4.242,4.242,0,0,1,.426-1.508l.887-2.164h5.13l1.667,4.047a1.6,1.6,0,0,0,1.407.887h3.232v-.44A1.873,1.873,0,0,1,1523.894,195.209Zm-9.487-4.855,2-5.187,2.135,5.187Z" transform="translate(-1448.914 -182.1)" fill="#f78f35"/>
    <path id="Path_632" data-name="Path 632" d="M1231.09,194.148c0-1.883.007-10.483,0-10.512a1.671,1.671,0,0,0-1.7-1.537h-2.972v.44c1.075.2,1.27.916,1.27,2.316v9.22c-.036,1.212-.3,1.861-1.292,2.049v.44h5.988v-.44C1231.4,195.945,1231.14,195.317,1231.09,194.148Z" transform="translate(-1185.681 -182.1)" fill="#f78f35"/>
    <path id="Path_633" data-name="Path 633" d="M672.021,182.54c1.068.2,1.27.916,1.27,2.316v8.08A5.559,5.559,0,0,1,669.215,195c-1.948,0-2.662-1.089-2.662-3.441v-2.619h0v-5.3a1.671,1.671,0,0,0-1.7-1.537H662v.44c1.075.2,1.27.916,1.27,2.316v5.779h0v1.111c0,3.247,1.544,4.827,4.733,4.827a7.459,7.459,0,0,0,5.3-2.114v.628a1.615,1.615,0,0,0,1.638,1.486h2.871v-.44c-.981-.188-1.2-.808-1.227-2.035v-9.242c0-1.407.195-2.114,1.263-2.316v-.44h-5.822Z" transform="translate(-662 -182.1)" fill="#f78f35"/>
    <path id="Path_634" data-name="Path 634" d="M1750.373,193.816v-5.779h0v-1.111c0-3.247-1.544-4.827-4.733-4.827a7.459,7.459,0,0,0-5.3,2.114v-.628a1.615,1.615,0,0,0-1.638-1.486h-2.871v.44c.981.188,1.2.808,1.226,2.034v9.242c0,1.407-.195,2.114-1.262,2.316v.44h5.822v-.44c-1.068-.2-1.27-.916-1.27-2.316v-8.08a5.559,5.559,0,0,1,4.076-2.063c1.948,0,2.662,1.089,2.662,3.441v2.619h0v5.3a1.671,1.671,0,0,0,1.7,1.537h2.857v-.44C1750.568,195.93,1750.373,195.216,1750.373,193.816Z" transform="translate(-1658.33 -182.1)" fill="#f78f35"/>
    <path id="Path_635" data-name="Path 635" d="M1065.347,182.1H1064.1v.447h1.263c1.053.209,1.248.916,1.248,2.316v12.387a2.815,2.815,0,0,1-.591,1.587c0,.007-.007.007-.007.014-.043.05-.087.108-.13.159l-.007.007a3.241,3.241,0,0,1-.635.534c-.015.007-.021.014-.036.022s-.036.022-.05.029a2.762,2.762,0,0,1-1.176.346,3.488,3.488,0,0,1-.476,0v.433a8.469,8.469,0,0,0,1.075.029,6.277,6.277,0,0,0,1.919-.31c.036-.014.079-.022.115-.036a4.86,4.86,0,0,0,3.29-4.415V184.863c0-1.4.2-2.107,1.248-2.316h1.263V182.1h-7.063Z" transform="translate(-1034.534 -182.1)" fill="#f78f35"/>
    <path id="Path_636" data-name="Path 636" d="M918.147,182.1H916.9v.447h1.263c1.053.209,1.248.916,1.248,2.316V197.25a2.814,2.814,0,0,1-.592,1.587c0,.007-.007.007-.007.014-.044.051-.087.108-.13.159l-.007.007a3.231,3.231,0,0,1-.635.534c-.014.007-.022.014-.036.022s-.036.022-.05.029a2.762,2.762,0,0,1-1.176.346,3.493,3.493,0,0,1-.476,0v.433a8.474,8.474,0,0,0,1.075.029,6.278,6.278,0,0,0,1.919-.31c.036-.014.08-.022.115-.036a4.86,4.86,0,0,0,3.29-4.415V184.863c0-1.4.2-2.107,1.248-2.316h1.263V182.1h-7.063Z" transform="translate(-897.954 -182.1)" fill="#f78f35"/>
  </g>
  <g id="Group_5254" data-name="Group 5254" transform="translate(145.618 12.76)">
    <path id="Path_637" data-name="Path 637" d="M2022.859,190.961q3.171,0,3.167-2.172a2.192,2.192,0,0,0-.281-1.14,2.732,2.732,0,0,0-.765-.815,5.113,5.113,0,0,0-1.1-.592c-.411-.166-.844-.332-1.306-.5a12.75,12.75,0,0,1-1.5-.613,5.222,5.222,0,0,1-1.234-.815,3.437,3.437,0,0,1-.823-1.118,4.1,4.1,0,0,1,.989-4.531,5.455,5.455,0,0,1,3.564-1.068,9.432,9.432,0,0,1,2.388.281,5.41,5.41,0,0,1,1.573.613l-.642,1.645a5.62,5.62,0,0,0-1.306-.534,7.023,7.023,0,0,0-2.013-.26,4.644,4.644,0,0,0-1.082.123,2.828,2.828,0,0,0-.873.375,1.767,1.767,0,0,0-.808,1.544,1.953,1.953,0,0,0,.231.981,2.207,2.207,0,0,0,.649.7,6.08,6.08,0,0,0,.967.556c.368.166.772.332,1.219.5.627.252,1.2.5,1.724.75a5.756,5.756,0,0,1,1.357.895,3.551,3.551,0,0,1,.887,1.241,4.323,4.323,0,0,1,.311,1.739,3.422,3.422,0,0,1-1.385,2.922,6.464,6.464,0,0,1-3.91,1.025,9.641,9.641,0,0,1-1.573-.115c-.476-.079-.909-.166-1.284-.267a7.149,7.149,0,0,1-.967-.332,6,6,0,0,1-.635-.3l.606-1.667a9.292,9.292,0,0,0,1.457.606A7.214,7.214,0,0,0,2022.859,190.961Z" transform="translate(-2018.4 -177.549)" fill="#229e82"/>
    <path id="Path_638" data-name="Path 638" d="M2177.19,194.66c-.137-.332-.325-.758-.556-1.27s-.476-1.068-.743-1.667-.548-1.212-.844-1.847-.584-1.226-.844-1.8-.512-1.068-.743-1.515-.411-.786-.555-1.024c-.151,1.638-.274,3.42-.375,5.332s-.18,3.838-.245,5.786H2170.3c.058-1.248.116-2.511.188-3.788s.151-2.525.238-3.752.188-2.431.289-3.6.216-2.273.339-3.319h1.775c.375.613.779,1.335,1.212,2.172s.865,1.71,1.292,2.619.851,1.818,1.255,2.734.772,1.739,1.1,2.489q.5-1.125,1.1-2.489c.4-.909.823-1.818,1.248-2.734s.858-1.782,1.292-2.619.837-1.558,1.212-2.172h1.775q.714,6.991,1.068,14.451h-1.984q-.108-2.922-.253-5.786t-.375-5.324c-.137.238-.325.577-.556,1.024s-.476.952-.736,1.515-.548,1.162-.844,1.8-.577,1.248-.844,1.847-.512,1.154-.736,1.667-.411.938-.555,1.27Z" transform="translate(-2159.341 -181.818)" fill="#229e82"/>
    <path id="Path_639" data-name="Path 639" d="M2404.69,196.651c-.238-.628-.462-1.241-.671-1.847s-.426-1.219-.649-1.847h-6.551l-1.313,3.694H2393.4q.833-2.294,1.558-4.242t1.429-3.7q.692-1.753,1.385-3.348t1.436-3.16h1.854q.747,1.558,1.443,3.16t1.385,3.348q.7,1.753,1.428,3.7t1.566,4.242Zm-1.9-5.36q-.672-1.818-1.328-3.514c-.44-1.133-.894-2.222-1.371-3.261-.483,1.046-.945,2.128-1.385,3.261s-.873,2.3-1.3,3.514Z" transform="translate(-2366.345 -181.818)" fill="#229e82"/>
    <path id="Path_640" data-name="Path 640" d="M2604.8,194.89v1.753l-8.694.007L2596.1,182.2h2.02l.007,12.7Z" transform="translate(-2554.421 -181.818)" fill="#229e82"/>
    <path id="Path_641" data-name="Path 641" d="M2743.2,194.79v1.753l-8.694.007L2734.5,182.1h2.02l.007,12.7Z" transform="translate(-2682.837 -181.725)" fill="#229e82"/>
    <path id="Path_642" data-name="Path 642" d="M2928.207,196.358l-.008-14.451,8.715-.007v1.732h-6.695v4.358h5.945v1.71h-5.945v6.652Z" transform="translate(-2862.562 -181.539)" fill="#229e82"/>
    <path id="Path_643" data-name="Path 643" d="M3071.8,181.9h2.021l.007,14.451h-2.021Z" transform="translate(-2995.802 -181.539)" fill="#229e82"/>
    <path id="Path_644" data-name="Path 644" d="M3147.913,196.251c-.3-.512-.657-1.089-1.053-1.731s-.823-1.306-1.284-1.991-.938-1.385-1.429-2.092-.981-1.392-1.471-2.056-.959-1.284-1.421-1.869-.88-1.1-1.27-1.544l.007,11.284h-1.984L3138,181.8h1.608c.657.693,1.35,1.508,2.1,2.431s1.479,1.876,2.215,2.857,1.421,1.941,2.063,2.886,1.19,1.789,1.637,2.525l-.007-10.7h1.984l.007,14.451Z" transform="translate(-3057.226 -181.446)" fill="#229e82"/>
    <path id="Path_645" data-name="Path 645" d="M3325.591,196.151c-.238-.628-.462-1.241-.671-1.847s-.426-1.219-.649-1.847h-6.551l-1.313,3.694H3314.3q.834-2.294,1.559-4.242t1.428-3.7q.693-1.753,1.385-3.348c.462-1.061.938-2.114,1.436-3.16h1.854q.747,1.558,1.443,3.16t1.385,3.348q.7,1.753,1.428,3.7t1.566,4.242Zm-1.9-5.36q-.671-1.818-1.328-3.513T3321,184.016c-.483,1.046-.945,2.128-1.385,3.261s-.873,2.3-1.3,3.513Z" transform="translate(-3220.807 -181.354)" fill="#229e82"/>
    <path id="Path_646" data-name="Path 646" d="M3526.813,196.051c-.3-.512-.657-1.089-1.054-1.731s-.823-1.306-1.284-1.991-.937-1.385-1.429-2.092-.981-1.392-1.471-2.056-.96-1.284-1.422-1.869-.88-1.1-1.27-1.544l.008,11.284h-1.984L3516.9,181.6h1.609c.656.693,1.348,1.508,2.1,2.431s1.479,1.876,2.215,2.857,1.421,1.941,2.063,2.886,1.19,1.789,1.638,2.525l-.007-10.7h1.985l.007,14.451Z" transform="translate(-3408.79 -181.261)" fill="#229e82"/>
    <path id="Path_647" data-name="Path 647" d="M3714.6,192a7.4,7.4,0,0,1-2.771-.5,5.923,5.923,0,0,1-2.15-1.457,6.557,6.557,0,0,1-1.385-2.366,9.821,9.821,0,0,1-.49-3.225,8.8,8.8,0,0,1,.548-3.225,6.971,6.971,0,0,1,1.494-2.366,6.285,6.285,0,0,1,2.186-1.457,7.315,7.315,0,0,1,2.669-.505,9.892,9.892,0,0,1,1.616.123,11.131,11.131,0,0,1,1.248.289,6.059,6.059,0,0,1,.866.332,4.107,4.107,0,0,1,.462.253l-.584,1.667a3.1,3.1,0,0,0-.541-.274c-.239-.094-.505-.195-.8-.289a6.968,6.968,0,0,0-.981-.238,5.953,5.953,0,0,0-1.075-.094,5.108,5.108,0,0,0-2.063.4,4.347,4.347,0,0,0-1.566,1.147,5.161,5.161,0,0,0-.988,1.825,7.835,7.835,0,0,0-.346,2.41,8.6,8.6,0,0,0,.3,2.359,5.156,5.156,0,0,0,.909,1.825,4.055,4.055,0,0,0,1.514,1.176,4.983,4.983,0,0,0,2.114.418,7.758,7.758,0,0,0,2.316-.3,10.569,10.569,0,0,0,1.377-.519l.52,1.667a2.58,2.58,0,0,1-.52.26,8.432,8.432,0,0,1-.937.3c-.375.094-.815.18-1.312.253A11.531,11.531,0,0,1,3714.6,192Z" transform="translate(-3585.918 -176.9)" fill="#229e82"/>
    <path id="Path_648" data-name="Path 648" d="M3883.407,195.858l-.008-14.451,8.824-.007v1.731h-6.8v4.293h6.046v1.688h-6.046v5.007l7.323-.007v1.731Z" transform="translate(-3748.848 -181.075)" fill="#229e82"/>
    <path id="Path_649" data-name="Path 649" d="M4096.01,194.025c-.289,0-.607-.007-.953-.022s-.678-.036-1.024-.065-.678-.065-1.01-.1a7.426,7.426,0,0,1-.916-.166l-.007-14.011a7.712,7.712,0,0,1,.916-.166c.332-.043.671-.079,1.01-.108s.677-.05,1.01-.065.649-.022.938-.022a14.083,14.083,0,0,1,2.344.188,5.917,5.917,0,0,1,1.9.635,3.42,3.42,0,0,1,1.263,1.176,3.325,3.325,0,0,1,.462,1.8,3.182,3.182,0,0,1-.563,1.948,3.419,3.419,0,0,1-1.5,1.14,4.291,4.291,0,0,1,2.02,1.19,3.268,3.268,0,0,1,.75,2.294,3.7,3.7,0,0,1-1.594,3.261A9.044,9.044,0,0,1,4096.01,194.025Zm-1.906-8.484h2.128a8.968,8.968,0,0,0,1.422-.108,3.5,3.5,0,0,0,1.153-.375,2.16,2.16,0,0,0,.773-.707,2.007,2.007,0,0,0,.281-1.1,1.825,1.825,0,0,0-.3-1.053,2.141,2.141,0,0,0-.8-.685,4.25,4.25,0,0,0-1.2-.382,7.9,7.9,0,0,0-1.458-.123c-.512,0-.915.007-1.212.022s-.556.036-.793.065Zm0,1.623v5.086q.228.022.542.043c.18.014.39.022.635.029s.526.007.844.007a11.686,11.686,0,0,0,1.7-.115,4.9,4.9,0,0,0,1.408-.4,2.45,2.45,0,0,0,.967-.815,2.173,2.173,0,0,0,.36-1.313,2.451,2.451,0,0,0-.274-1.2,2.022,2.022,0,0,0-.779-.779,3.842,3.842,0,0,0-1.219-.418,8.924,8.924,0,0,0-1.587-.123Z" transform="translate(-3942.491 -179.127)" fill="#229e82"/>
    <path id="Path_650" data-name="Path 650" d="M4255.191,195.651c-.239-.628-.462-1.241-.67-1.847s-.426-1.219-.65-1.847h-6.552l-1.313,3.694H4243.9q.834-2.294,1.559-4.242t1.428-3.7q.693-1.753,1.386-3.348c.461-1.061.937-2.114,1.437-3.16h1.853c.5,1.039.981,2.092,1.443,3.16s.923,2.179,1.386,3.348.944,2.4,1.429,3.7,1.009,2.713,1.565,4.242Zm-1.9-5.353c-.448-1.212-.888-2.381-1.328-3.514s-.895-2.222-1.37-3.261c-.484,1.046-.946,2.128-1.385,3.261s-.874,2.3-1.3,3.514Z" transform="translate(-4083.34 -180.89)" fill="#229e82"/>
    <path id="Path_651" data-name="Path 651" d="M4456.412,195.551c-.3-.512-.656-1.089-1.052-1.731s-.823-1.306-1.284-1.991-.938-1.385-1.429-2.092-.98-1.392-1.471-2.056-.959-1.284-1.422-1.869-.88-1.1-1.271-1.544l.008,11.284h-1.984L4446.5,181.1h1.609c.656.693,1.349,1.508,2.1,2.431s1.479,1.876,2.215,2.857,1.421,1.941,2.062,2.886,1.191,1.789,1.637,2.525l-.006-10.7h1.983l.008,14.451Z" transform="translate(-4271.323 -180.797)" fill="#229e82"/>
    <path id="Path_652" data-name="Path 652" d="M4656,181c-.434.476-.917,1-1.458,1.573s-1.112,1.169-1.7,1.775-1.175,1.2-1.759,1.782-1.133,1.125-1.646,1.63a18.033,18.033,0,0,1,1.9,1.544c.671.613,1.321,1.263,1.962,1.962s1.242,1.407,1.8,2.128a18.1,18.1,0,0,1,1.407,2.063h-2.38a18.908,18.908,0,0,0-1.443-1.97c-.541-.657-1.119-1.291-1.725-1.9s-1.219-1.162-1.832-1.681a16.3,16.3,0,0,0-1.8-1.313v6.861h-2.019l-.009-14.451h2.021v6.378c.483-.462,1.024-.974,1.6-1.551s1.163-1.154,1.731-1.739,1.111-1.147,1.616-1.681.938-1,1.285-1.407Z" transform="translate(-4455.781 -180.704)" fill="#229e82"/>
  </g>
  <g id="Group_5256" data-name="Group 5256" transform="translate(239.942 33.257)">
    <g id="Group_5255" data-name="Group 5255">
      <path id="Path_653" data-name="Path 653" d="M3328.281,484.372c-.188,0-.39-.007-.606-.014s-.433-.022-.649-.043-.433-.043-.642-.065a4.42,4.42,0,0,1-.584-.108v-8.917c.18-.043.375-.079.584-.108s.426-.051.642-.065.433-.029.642-.036.411-.014.6-.014a8.808,8.808,0,0,1,1.494.123,3.928,3.928,0,0,1,1.212.4,2.163,2.163,0,0,1,.8.75,2.107,2.107,0,0,1,.288,1.14,2.041,2.041,0,0,1-.361,1.241,2.106,2.106,0,0,1-.959.721,2.8,2.8,0,0,1,1.292.758,2.078,2.078,0,0,1,.476,1.457,2.354,2.354,0,0,1-1.017,2.078A5.725,5.725,0,0,1,3328.281,484.372Zm-1.212-5.4h1.356a5.971,5.971,0,0,0,.9-.065,2.214,2.214,0,0,0,.736-.238,1.3,1.3,0,0,0,.49-.455,1.246,1.246,0,0,0,.181-.7,1.166,1.166,0,0,0-.188-.671,1.4,1.4,0,0,0-.513-.44,2.716,2.716,0,0,0-.764-.245,5.394,5.394,0,0,0-.931-.079c-.332,0-.584.007-.772.014a4.929,4.929,0,0,0-.5.043v2.835Zm0,1.039v3.239c.1.007.216.022.346.029l.4.022c.151.007.331.007.541.007a8.5,8.5,0,0,0,1.082-.072,3.1,3.1,0,0,0,.895-.26,1.561,1.561,0,0,0,.62-.519,1.45,1.45,0,0,0,.231-.837,1.567,1.567,0,0,0-.173-.765,1.273,1.273,0,0,0-.5-.5,2.55,2.55,0,0,0-.779-.267,6.109,6.109,0,0,0-1.01-.079Z" transform="translate(-3325.8 -473.99)" fill="#808285"/>
      <path id="Path_654" data-name="Path 654" d="M3447.569,514.617c-.281.072-.656.144-1.126.224a9.6,9.6,0,0,1-1.609.123,3.469,3.469,0,0,1-1.342-.231,2.123,2.123,0,0,1-.873-.656,2.59,2.59,0,0,1-.476-1,5.4,5.4,0,0,1-.144-1.284v-3.874h1.234v3.607a3.1,3.1,0,0,0,.4,1.8,1.561,1.561,0,0,0,1.342.541c.13,0,.274-.007.411-.015s.274-.022.4-.036.238-.029.339-.036a.8.8,0,0,0,.217-.051V507.9h1.234Z" transform="translate(-3433.616 -504.516)" fill="#808285"/>
      <path id="Path_655" data-name="Path 655" d="M3546.894,470.016a.827.827,0,0,1-.563-1.4.81.81,0,0,1,.563-.216.783.783,0,0,1,.562.216.75.75,0,0,1,.231.592.776.776,0,0,1-.231.592A.807.807,0,0,1,3546.894,470.016Zm.62,8.152h-1.233v-6.9h1.233Z" transform="translate(-3530.206 -467.866)" fill="#808285"/>
      <path id="Path_656" data-name="Path 656" d="M3596.892,471.532a2.38,2.38,0,0,1-1.616-.491,1.954,1.954,0,0,1-.476-1.45v-8.282l1.234-.209v8.3a2.017,2.017,0,0,0,.05.505.709.709,0,0,0,.173.317.806.806,0,0,0,.317.18,4.135,4.135,0,0,0,.491.1Z" transform="translate(-3575.393 -461.093)" fill="#808285"/>
      <path id="Path_657" data-name="Path 657" d="M3644.755,461.309l1.234-.209v10.1c-.282.079-.649.159-1.089.238a8.7,8.7,0,0,1-1.53.123,3.917,3.917,0,0,1-1.436-.253,3.039,3.039,0,0,1-1.089-.714,3.172,3.172,0,0,1-.7-1.133,4.331,4.331,0,0,1-.245-1.508,4.887,4.887,0,0,1,.2-1.457,3.262,3.262,0,0,1,.605-1.14,2.76,2.76,0,0,1,.975-.743,3.062,3.062,0,0,1,1.32-.267,3.141,3.141,0,0,1,1.053.159,3.864,3.864,0,0,1,.686.3v-3.5Zm0,4.646a2.628,2.628,0,0,0-.65-.361,2.425,2.425,0,0,0-.931-.173,1.971,1.971,0,0,0-.909.195,1.7,1.7,0,0,0-.62.534,2.25,2.25,0,0,0-.346.8,4.325,4.325,0,0,0-.109,1,2.657,2.657,0,0,0,.6,1.861,2.039,2.039,0,0,0,1.594.656,6.787,6.787,0,0,0,.844-.043,3.8,3.8,0,0,0,.527-.1Z" transform="translate(-3617.238 -461.093)" fill="#808285"/>
      <path id="Path_658" data-name="Path 658" d="M3792.034,505.7a3.589,3.589,0,0,1,1.256.195,2.1,2.1,0,0,1,.822.541,1.993,1.993,0,0,1,.44.837,4.162,4.162,0,0,1,.129,1.068v4.314c-.108.021-.252.043-.448.072s-.4.058-.641.086-.5.051-.78.072-.555.036-.829.036a4.531,4.531,0,0,1-1.075-.123,2.621,2.621,0,0,1-.852-.375,1.741,1.741,0,0,1-.555-.685,2.438,2.438,0,0,1-.2-1.025,2,2,0,0,1,.231-.981,1.879,1.879,0,0,1,.635-.664,3.186,3.186,0,0,1,.93-.375,5.093,5.093,0,0,1,1.112-.123,3.721,3.721,0,0,1,.389.022c.13.014.26.029.382.05s.224.043.311.058.151.029.187.036v-.346a2.858,2.858,0,0,0-.065-.606,1.361,1.361,0,0,0-.237-.534,1.2,1.2,0,0,0-.469-.368,1.812,1.812,0,0,0-.778-.137,5.828,5.828,0,0,0-1.069.087,3.621,3.621,0,0,0-.685.18l-.144-1.024a4.03,4.03,0,0,1,.8-.209A6.418,6.418,0,0,1,3792.034,505.7Zm.108,6.19q.432,0,.78-.022a3.475,3.475,0,0,0,.562-.072V509.74a1.756,1.756,0,0,0-.433-.115,5.082,5.082,0,0,0-.721-.043,5.765,5.765,0,0,0-.592.036,1.8,1.8,0,0,0-.57.166,1.276,1.276,0,0,0-.433.346.9.9,0,0,0-.174.577,1,1,0,0,0,.426.923A2.189,2.189,0,0,0,3792.142,511.89Z" transform="translate(-3755.86 -502.475)" fill="#808285"/>
      <path id="Path_659" data-name="Path 659" d="M3938.382,484.372c-.188,0-.39-.007-.606-.014s-.432-.022-.649-.043-.433-.043-.643-.065a4.439,4.439,0,0,1-.584-.108v-8.917c.18-.043.375-.079.584-.108s.426-.051.643-.065.432-.029.642-.036.411-.014.6-.014a8.8,8.8,0,0,1,1.493.123,3.937,3.937,0,0,1,1.213.4,2.17,2.17,0,0,1,.8.75,2.107,2.107,0,0,1,.289,1.14,2.039,2.039,0,0,1-.361,1.241,2.108,2.108,0,0,1-.96.721,2.8,2.8,0,0,1,1.292.758,2.074,2.074,0,0,1,.477,1.457,2.355,2.355,0,0,1-1.017,2.078A5.71,5.71,0,0,1,3938.382,484.372Zm-1.2-5.4h1.356a5.962,5.962,0,0,0,.9-.065,2.205,2.205,0,0,0,.736-.238,1.3,1.3,0,0,0,.49-.455,1.246,1.246,0,0,0,.18-.7,1.162,1.162,0,0,0-.188-.671,1.389,1.389,0,0,0-.512-.44,2.729,2.729,0,0,0-.764-.245,5.4,5.4,0,0,0-.931-.079c-.331,0-.584.007-.772.014a4.939,4.939,0,0,0-.505.043v2.835Zm0,1.039v3.239c.1.007.217.022.346.029l.4.022c.151.007.332.007.541.007a8.494,8.494,0,0,0,1.082-.072,3.105,3.105,0,0,0,.895-.26,1.564,1.564,0,0,0,.621-.519,1.45,1.45,0,0,0,.231-.837,1.559,1.559,0,0,0-.174-.765,1.269,1.269,0,0,0-.5-.5,2.546,2.546,0,0,0-.779-.267,5.414,5.414,0,0,0-1.01-.079Z" transform="translate(-3891.884 -473.99)" fill="#808285"/>
      <path id="Path_660" data-name="Path 660" d="M4047.8,509.436a4.335,4.335,0,0,1,.268-1.6,3.406,3.406,0,0,1,.7-1.133,2.81,2.81,0,0,1,1.01-.678,3.143,3.143,0,0,1,1.169-.224,2.64,2.64,0,0,1,2.135.873,4.025,4.025,0,0,1,.744,2.648v.209a2.3,2.3,0,0,1-.015.231h-4.726a2.51,2.51,0,0,0,.621,1.63,2.269,2.269,0,0,0,1.7.556,4.376,4.376,0,0,0,1.768-.332l.172,1.039a3.524,3.524,0,0,1-.793.253,5.7,5.7,0,0,1-1.276.13,4.088,4.088,0,0,1-1.558-.274,2.893,2.893,0,0,1-1.083-.75,3.228,3.228,0,0,1-.634-1.133A4.873,4.873,0,0,1,4047.8,509.436Zm4.74-.678a2.063,2.063,0,0,0-.418-1.371,1.442,1.442,0,0,0-1.19-.541,1.666,1.666,0,0,0-.75.166,1.709,1.709,0,0,0-.548.433,2.062,2.062,0,0,0-.353.613,3.06,3.06,0,0,0-.167.707Z" transform="translate(-3995.711 -502.568)" fill="#808285"/>
      <path id="Path_661" data-name="Path 661" d="M4156.04,480.636h2.612v1.039h-2.612v3.182a3.989,3.989,0,0,0,.08.859,1.253,1.253,0,0,0,.238.534.886.886,0,0,0,.4.274,1.837,1.837,0,0,0,.555.079,2.524,2.524,0,0,0,.9-.13c.223-.087.382-.144.468-.18l.238,1.024a4.281,4.281,0,0,1-.649.231,3.674,3.674,0,0,1-1.061.137,3.144,3.144,0,0,1-1.162-.18,1.7,1.7,0,0,1-.736-.541,2.1,2.1,0,0,1-.39-.88,5.576,5.576,0,0,1-.116-1.212v-6.161l1.234-.209v2.136Z" transform="translate(-4094.99 -477.237)" fill="#808285"/>
      <path id="Path_662" data-name="Path 662" d="M4230.04,480.636h2.612v1.039h-2.612v3.182a4.024,4.024,0,0,0,.08.859,1.265,1.265,0,0,0,.239.534.891.891,0,0,0,.4.274,1.838,1.838,0,0,0,.556.079,2.521,2.521,0,0,0,.895-.13c.224-.087.382-.144.469-.18l.238,1.024a4.272,4.272,0,0,1-.649.231,3.674,3.674,0,0,1-1.061.137,3.152,3.152,0,0,1-1.162-.18,1.7,1.7,0,0,1-.736-.541,2.142,2.142,0,0,1-.389-.88,5.578,5.578,0,0,1-.115-1.212v-6.161l1.234-.209v2.136Z" transform="translate(-4163.652 -477.237)" fill="#808285"/>
      <path id="Path_663" data-name="Path 663" d="M4296.8,509.436a4.325,4.325,0,0,1,.267-1.6,3.39,3.39,0,0,1,.7-1.133,2.805,2.805,0,0,1,1.01-.678,3.143,3.143,0,0,1,1.169-.224,2.641,2.641,0,0,1,2.135.873,4.022,4.022,0,0,1,.744,2.648v.209a2.166,2.166,0,0,1-.015.231h-4.726a2.518,2.518,0,0,0,.62,1.63,2.272,2.272,0,0,0,1.7.556,4.366,4.366,0,0,0,1.768-.332l.174,1.039a3.542,3.542,0,0,1-.793.253,5.71,5.71,0,0,1-1.278.13,4.093,4.093,0,0,1-1.558-.274,2.873,2.873,0,0,1-1.082-.75,3.2,3.2,0,0,1-.635-1.133A4.842,4.842,0,0,1,4296.8,509.436Zm4.733-.678a2.063,2.063,0,0,0-.418-1.371,1.442,1.442,0,0,0-1.19-.541,1.661,1.661,0,0,0-.75.166,1.7,1.7,0,0,0-.549.433,2.063,2.063,0,0,0-.354.613,3.058,3.058,0,0,0-.166.707Z" transform="translate(-4226.746 -502.568)" fill="#808285"/>
      <path id="Path_664" data-name="Path 664" d="M4407.546,506.1a3.564,3.564,0,0,1,.368.022c.138.014.274.029.4.05s.253.043.369.065.195.043.246.058l-.209,1.075a4.56,4.56,0,0,0-.484-.13,4.193,4.193,0,0,0-.872-.072,3.7,3.7,0,0,0-.686.072c-.224.051-.375.079-.447.1v5.8H4405v-6.609a7.2,7.2,0,0,1,1.089-.3A6.859,6.859,0,0,1,4407.546,506.1Z" transform="translate(-4327.14 -502.846)" fill="#808285"/>
      <path id="Path_665" data-name="Path 665" d="M4525.132,484.387V485.5H4519.6v-9.2h1.284v8.088Z" transform="translate(-4433.472 -475.196)" fill="#808285"/>
      <path id="Path_666" data-name="Path 666" d="M4612.193,470.016a.826.826,0,0,1-.562-1.4.808.808,0,0,1,.562-.216.787.787,0,0,1,.563.216.753.753,0,0,1,.23.592.766.766,0,0,1-.793.808Zm.62,8.152h-1.233v-6.9h1.233Z" transform="translate(-4518.649 -467.866)" fill="#808285"/>
      <path id="Path_667" data-name="Path 667" d="M4663.291,461a5.06,5.06,0,0,1,.938.079,3.263,3.263,0,0,1,.548.144l-.23,1.061a2.647,2.647,0,0,0-.447-.151,2.918,2.918,0,0,0-.715-.072,1.4,1.4,0,0,0-1.2.469,2.106,2.106,0,0,0-.347,1.27v.6h2.656v1.039h-2.656V471.3H4660.6v-7.525a2.958,2.958,0,0,1,.649-2.049A2.6,2.6,0,0,1,4663.291,461Z" transform="translate(-4564.3 -461)" fill="#808285"/>
      <path id="Path_668" data-name="Path 668" d="M4726.2,509.436a4.335,4.335,0,0,1,.268-1.6,3.39,3.39,0,0,1,.7-1.133,2.808,2.808,0,0,1,1.01-.678,3.149,3.149,0,0,1,1.17-.224,2.641,2.641,0,0,1,2.135.873,4.022,4.022,0,0,1,.744,2.648v.209a2.152,2.152,0,0,1-.016.231h-4.725a2.52,2.52,0,0,0,.62,1.63,2.273,2.273,0,0,0,1.7.556,4.371,4.371,0,0,0,1.768-.332l.173,1.039a3.524,3.524,0,0,1-.793.253,5.7,5.7,0,0,1-1.278.13,4.088,4.088,0,0,1-1.557-.274,2.871,2.871,0,0,1-1.082-.75,3.092,3.092,0,0,1-.635-1.133A4.857,4.857,0,0,1,4726.2,509.436Zm4.741-.678a2.069,2.069,0,0,0-.419-1.371,1.44,1.44,0,0,0-1.19-.541,1.661,1.661,0,0,0-.75.166,1.706,1.706,0,0,0-.549.433,2.052,2.052,0,0,0-.353.613,2.983,2.983,0,0,0-.166.707h3.427Z" transform="translate(-4625.167 -502.568)" fill="#808285"/>
    </g>
  </g>
</svg>
