<svg xmlns="http://www.w3.org/2000/svg" xmlns:xlink="http://www.w3.org/1999/xlink" width="61.637" height="61.637" viewBox="0 0 61.637 61.637">
  <defs>
    <filter id="active_ring" x="0" y="0" width="61.637" height="61.637" filterUnits="userSpaceOnUse">
      <feOffset dy="5" input="SourceAlpha"/>
      <feGaussianBlur stdDeviation="5" result="blur"/>
      <feFlood flood-color="#fcd967"/>
      <feComposite operator="in" in2="blur"/>
      <feComposite in="SourceGraphic"/>
    </filter>
  </defs>
  <g id="Group_5156" data-name="Group 5156" transform="translate(-193 -49)">
    <g transform="matrix(1, 0, 0, 1, 193, 49)" filter="url(#active_ring)">
      <g id="active_ring-2" data-name="active ring" transform="translate(15 10)" fill="none">
        <path d="M15.819,0A15.819,15.819,0,1,1,0,15.819,15.819,15.819,0,0,1,15.819,0Z" stroke="none"/>
        <path d="M 15.81874084472656 3 C 12.39473152160645 3 9.175661087036133 4.333381652832031 6.754520416259766 6.754520416259766 C 4.333381652832031 9.175661087036133 3 12.39473152160645 3 15.81874084472656 C 3 19.24275207519531 4.333381652832031 22.46182060241699 6.754520416259766 24.88296127319336 C 9.175661087036133 27.30410003662109 12.39473152160645 28.63748168945312 15.81874084472656 28.63748168945312 C 19.24275207519531 28.63748168945312 22.46182060241699 27.30410003662109 24.88296127319336 24.88296127319336 C 27.30410003662109 22.46182060241699 28.63748168945312 19.24275207519531 28.63748168945312 15.81874084472656 C 28.63748168945312 12.39473152160645 27.30410003662109 9.175661087036133 24.88296127319336 6.754520416259766 C 22.46182060241699 4.333381652832031 19.24275207519531 3 15.81874084472656 3 M 15.81874084472656 0 C 24.55519104003906 0 31.63748168945312 7.082290649414062 31.63748168945312 15.81874084472656 C 31.63748168945312 24.55519104003906 24.55519104003906 31.63748168945312 15.81874084472656 31.63748168945312 C 7.082290649414062 31.63748168945312 0 24.55519104003906 0 15.81874084472656 C 0 7.082290649414062 7.082290649414062 0 15.81874084472656 0 Z" stroke="none" fill="#f78f35"/>
      </g>
    </g>
    <g id="ic_person_24px" transform="translate(216.779 67.779)">
      <path id="ic_person_24px-2" data-name="ic_person_24px" d="M11.039,11.039A3.52,3.52,0,1,0,7.52,7.52,3.519,3.519,0,0,0,11.039,11.039Zm0,1.76C8.69,12.8,4,13.978,4,16.319v1.76H18.079v-1.76C18.079,13.978,13.389,12.8,11.039,12.8Z" transform="translate(-4 -4)" fill="#229e82"/>
    </g>
  </g>
</svg>
